<svg width="24" height="24" viewBox="0 0 24 24" fill="none" xmlns="http://www.w3.org/2000/svg">
<path fill-rule="evenodd" clip-rule="evenodd" d="M4.04402 3.87263C4.01936 3.9752 3.99707 4.13558 3.99094 4.36495C3.9754 4.94564 4.06699 5.72302 4.21283 6.54194C4.35645 7.34838 4.54308 8.14359 4.6951 8.74097C4.77084 9.03861 4.83738 9.28477 4.88476 9.45571C4.90843 9.54114 4.92728 9.60766 4.94006 9.65228L4.9545 9.7024L4.958 9.71442L4.95877 9.71704C5.02865 9.95453 5.00809 10.21 4.90083 10.4331C4.40057 11.4736 3.99958 12.4399 3.99958 13.4398C3.99958 17.2614 7.37525 19.9998 11.9996 19.9998C16.6144 19.9998 19.9996 17.1692 19.9996 13.4398C19.9996 12.4721 19.6502 11.4708 19.117 10.4699C18.9955 10.2419 18.967 9.97573 19.0374 9.72717M21.0659 9.88736C21.1116 9.71365 21.1695 9.48779 21.2337 9.22416C21.3858 8.59952 21.5755 7.75325 21.7209 6.88192C21.8643 6.02305 21.974 5.08629 21.9438 4.29983C21.9289 3.91038 21.878 3.49489 21.743 3.12463C21.6097 2.75897 21.3406 2.29994 20.8047 2.0769C20.2679 1.85291 19.6382 1.79547 19.0266 1.82841C18.4012 1.86209 17.7243 1.99404 17.0505 2.21001C15.8869 2.58307 14.656 3.2323 13.6739 4.16116C13.1232 4.05522 12.5595 3.99978 11.9996 3.99977L11.9967 3.99978C11.4399 4.00141 10.8846 4.04934 10.3364 4.14292C9.34286 3.20434 8.08355 2.55832 6.89878 2.19192C6.21541 1.98058 5.52975 1.8536 4.89909 1.82342C4.28307 1.79394 3.64996 1.85346 3.11449 2.0769C2.57401 2.30242 2.30795 2.76796 2.17873 3.13499C2.04799 3.50635 2.00206 3.92235 1.99165 4.31148C1.97062 5.09767 2.09091 6.03404 2.24382 6.89261C2.39895 7.76368 2.59795 8.60972 2.75687 9.23421C2.8256 9.5043 2.88729 9.73473 2.93539 9.91002C2.47728 10.8932 1.99958 12.1002 1.99958 13.4398C1.99958 18.7382 6.6839 21.9998 11.9996 21.9998C17.3248 21.9998 21.9996 18.6304 21.9996 13.4398C21.9996 12.1548 21.5886 10.9452 21.0659 9.88736ZM19.0374 9.72717L19.0383 9.7241L19.0417 9.7121L19.0556 9.66203C19.0678 9.61743 19.086 9.55094 19.1087 9.46555C19.1542 9.29466 19.218 9.04858 19.2905 8.75102C19.4359 8.15379 19.6137 7.3588 19.7482 6.55264C19.8849 5.734 19.9676 4.95701 19.9453 4.3766C19.9363 4.14092 19.9109 3.9777 19.884 3.87491C19.7128 3.83349 19.4638 3.80776 19.1341 3.82552C18.7035 3.84871 18.1961 3.94302 17.6611 4.11454C16.5807 4.46091 15.4914 5.08767 14.7466 5.92461C14.4966 6.20545 14.1103 6.32237 13.7465 6.22724C13.1771 6.07829 12.5826 5.99991 12.001 5.99978C11.4028 6.00163 10.8067 6.07024 10.2237 6.20433C9.86774 6.28621 9.49543 6.16747 9.25258 5.89461C8.51345 5.06412 7.41064 4.44368 6.30787 4.10264C5.7625 3.93397 5.24378 3.8422 4.80349 3.82113C4.47035 3.80519 4.21794 3.83135 4.04402 3.87263M20.0368 3.92363C20.0361 3.92331 20.0353 3.92299 20.0345 3.92266L20.0368 3.92363ZM7.99958 12.9998C8.55186 12.9998 8.99958 13.4475 8.99958 13.9998V14.4998C8.99958 15.0521 8.55186 15.4998 7.99958 15.4998C7.44729 15.4998 6.99958 15.0521 6.99958 14.4998V13.9998C6.99958 13.4475 7.44729 12.9998 7.99958 12.9998ZM15.9996 12.9998C16.5519 12.9998 16.9996 13.4475 16.9996 13.9998V14.4998C16.9996 15.0521 16.5519 15.4998 15.9996 15.4998C15.4473 15.4998 14.9996 15.0521 14.9996 14.4998V13.9998C14.9996 13.4475 15.4473 12.9998 15.9996 12.9998ZM10.3257 15.8671C10.4805 15.4934 10.8451 15.2498 11.2496 15.2498H12.7496C13.154 15.2498 13.5187 15.4934 13.6735 15.8671C13.8282 16.2408 13.7427 16.6709 13.4567 16.9569L12.7067 17.7069C12.3162 18.0974 11.683 18.0974 11.2925 17.7069L10.5425 16.9569C10.2565 16.6709 10.1709 16.2408 10.3257 15.8671Z" fill="#2F6C5E"/>
</svg>
