<svg width="108" height="44" viewBox="0 0 108 44" fill="none" xmlns="http://www.w3.org/2000/svg">
<path d="M14.1959 40.2976C13.3265 43.4537 12.2717 43.4981 10.6238 43.4981H8.10454C5.49448 43.4981 5.12744 42.1728 4.62508 39.8404C3.66299 35.2219 0 13.5436 0 12.2182C0 11.3038 0.137176 11.0298 1.14561 11.0298H6.09138C7.28148 11.0298 7.51135 11.7166 7.69487 12.9957L10.672 32.7969C10.672 32.9339 10.7183 33.0246 10.8555 33.0246C10.9927 33.0246 11.039 32.9339 11.0854 32.7969C11.1317 32.5674 12.5517 22.142 12.5517 21.409C12.1846 18.9859 11.3152 13.9083 11.2244 12.8569C11.178 12.6273 11.178 12.3996 11.178 12.2164C11.178 11.3926 11.4524 11.028 12.2773 11.028C13.0559 11.028 14.3832 11.1187 15.2989 11.1187C15.7104 11.1187 18.8247 11.028 19.2381 11.028C19.9703 11.028 20.291 11.3482 20.291 12.2164C20.291 12.3996 20.2447 12.6273 20.2447 12.8569C20.1538 13.9083 19.4661 19.0303 19.4661 21.4552C19.4661 22.279 21.5275 32.7969 21.5275 32.7969C21.5275 32.9339 21.5738 33.0246 21.711 33.0246C21.8482 33.0246 21.8945 32.9339 21.939 32.7969L23.9077 12.8587C23.954 11.7147 24.3655 11.0298 25.4185 11.0298H30.7758C31.508 11.0298 31.6452 11.3501 31.6452 12.1275C31.6452 13.5455 28.5772 35.2219 27.6615 39.8404C27.25 42.0358 27.0201 43.4981 24.6844 43.4981H21.3866C19.6459 43.4981 18.8673 43.4981 18.1351 40.2976C17.4937 37.5987 16.6688 34.2149 16.1201 34.2149C15.7994 34.2149 14.7928 38.1022 14.1959 40.2976Z" fill="black"/>
<path d="M52.8482 41.212C52.8482 43.3149 51.4282 43.4981 48.8182 43.4981H46.3917C43.5517 43.4981 44.9717 36.638 43.1402 36.638H39.4772C37.6457 36.638 38.6986 43.4981 35.9514 43.4981H33.7992C31.4172 43.4981 29.999 43.3149 29.999 41.212C29.999 38.4687 31.0983 36.0438 34.6705 14.6876C35.0375 12.4015 35.9533 11.0298 37.7847 11.0298H44.8364C46.6679 11.0298 47.5836 12.4015 48.0415 14.6876C51.1558 33.4374 52.8501 38.4687 52.8501 41.212H52.8482ZM39.5217 29.0485C39.5217 29.7796 39.8424 29.7796 41.3068 29.7796C42.7713 29.7796 43.092 29.7796 43.092 29.0929C43.092 28.9096 43.092 28.6819 43.0457 28.3617C42.4969 23.8802 42.3134 18.3454 41.305 18.3454C40.2966 18.3454 40.0222 23.8339 39.5643 28.3617C39.518 28.6357 39.518 28.8652 39.518 29.0485H39.5217Z" fill="black"/>
<path d="M76.7522 41.212C76.7522 43.3149 75.3322 43.4981 72.7222 43.4981H70.2956C67.4557 43.4981 68.8756 36.638 67.0442 36.638H63.3812C61.5497 36.638 62.6026 43.4981 59.8554 43.4981H57.7032C55.3211 43.4981 53.903 43.3149 53.903 41.212C53.903 38.4687 55.0023 36.0438 58.5744 14.6876C58.9415 12.4015 59.8572 11.0298 61.6887 11.0298H68.7403C70.5718 11.0298 71.4876 12.4015 71.9454 14.6876C75.0597 33.4374 76.754 38.4687 76.754 41.212H76.7522ZM63.4257 29.0485C63.4257 29.7796 63.7463 29.7796 65.2108 29.7796C66.6753 29.7796 66.9959 29.7796 66.9959 29.0929C66.9959 28.9096 66.9959 28.6819 66.9496 28.3617C66.4009 23.8802 66.2174 18.3454 65.2089 18.3454C64.2005 18.3454 63.9262 23.8339 63.4683 28.3617C63.4219 28.6357 63.4219 28.8652 63.4219 29.0485H63.4257Z" fill="black"/>
<path d="M85.9115 33.119V39.8422C85.9115 41.6711 85.9115 43.5 83.1643 43.5H80.8749C78.1276 43.5 78.1277 41.6711 78.1277 39.8422V14.6876C78.1277 12.8587 78.1276 11.0298 80.8749 11.0298H90.8128C95.7586 11.0298 98.5521 15.0541 98.5521 21.4571C98.5521 24.019 97.8199 27.4472 97.1322 28.8652C95.6659 31.975 91.317 32.4323 88.7514 32.4323C87.6058 32.4323 87.0571 32.3416 87.0571 32.3416C85.9578 32.3416 85.9115 32.7081 85.9115 33.119ZM85.867 19.4449C85.867 20.0391 85.9134 20.8166 85.9134 21.7773C85.9134 22.738 85.867 23.5155 85.867 24.0634C85.867 25.5721 86.1414 25.846 87.9728 25.846C90.3994 25.846 90.4921 23.8339 90.4921 21.7755C90.4921 19.7171 90.0342 17.2014 87.9728 17.2014C86.1414 17.2014 85.867 17.7956 85.867 19.4431V19.4449Z" fill="black"/>
<path d="M86.6845 3.0701C86.6845 3.0701 86.7364 0.876545 88.8311 0.811756C90.9259 0.745117 91.406 3.19783 91.406 3.19783C91.406 3.19783 92.5145 7.56272 89.8173 8.35314C87.1201 9.14356 86.6993 4.38993 86.6864 3.07195L86.6845 3.0701Z" fill="#A7D2C2"/>
<path d="M94.1866 4.20853C94.1866 4.20853 95.3507 -0.900512 98.7245 0.874694C102.098 2.64805 98.3797 7.57568 98.3797 7.57568C98.3797 7.57568 96.6947 9.79145 94.7316 8.48087C93.1967 7.45536 94.2218 4.43251 94.1884 4.20853H94.1866Z" fill="#E57F6D"/>
<path d="M100.856 7.2758C100.856 7.2758 104.827 3.86237 106.482 7.28691C108.138 10.7114 102.223 12.4663 102.223 12.4663C102.223 12.4663 99.5513 13.2456 98.7542 11.0298C98.1295 9.2972 100.751 7.47572 100.856 7.2758Z" fill="#F0D443"/>
<path d="M103.939 14.0286C103.939 14.0286 107.404 13.3178 107.952 16.3351C108.486 19.2672 104.349 19.2413 104.349 19.2413C104.349 19.2413 100.324 19.7004 100.335 16.5739C100.345 14.4025 103.937 14.0305 103.937 14.0305L103.939 14.0286Z" fill="#583522"/>
</svg>
