<?xml version="1.0" standalone="no"?>
<!DOCTYPE svg PUBLIC "-//W3C//DTD SVG 20010904//EN"
 "http://www.w3.org/TR/2001/REC-SVG-20010904/DTD/svg10.dtd">
<svg version="1.0" xmlns="http://www.w3.org/2000/svg"
 width="750.000000pt" height="1000.000000pt" viewBox="0 0 750.000000 1000.000000"
 preserveAspectRatio="xMidYMid meet">

<g transform="translate(0.000000,1000.000000) scale(0.100000,-0.100000)"
fill="#000000" stroke="none">
<path d="M3781 8856 c-124 -41 -231 -162 -231 -261 0 -53 12 -67 79 -99 49
-24 62 -35 68 -60 10 -42 5 -822 -8 -1119 -10 -226 -12 -243 -40 -319 -40
-108 -39 -158 5 -243 44 -83 115 -173 203 -256 84 -78 156 -119 226 -126 47
-5 62 -1 157 45 108 51 228 95 360 131 74 20 334 73 419 85 l44 7 -7 -148 c-4
-81 -10 -151 -14 -154 -4 -4 -86 -23 -182 -44 -177 -37 -434 -101 -614 -153
l-99 -28 -146 44 c-186 57 -277 62 -357 20 -56 -30 -100 -76 -110 -115 -8 -31
6 -63 58 -131 40 -52 41 -54 40 -130 -1 -42 -6 -145 -11 -229 -19 -278 -33
-885 -26 -1183 18 -878 73 -1174 271 -1472 237 -357 600 -557 1158 -639 448
-65 1293 -77 1705 -23 393 51 668 182 746 355 35 80 31 127 -24 275 -39 102
-46 114 -116 184 -42 42 -99 111 -128 154 -48 72 -57 80 -117 105 -71 29 -90
52 -90 111 0 29 -6 39 -34 58 -20 14 -41 41 -51 64 -9 23 -40 68 -70 101 -50
57 -54 65 -60 126 -4 37 -22 116 -41 177 l-34 111 15 114 c8 62 15 141 15 175
0 62 0 62 -31 69 -17 4 -34 3 -39 -1 -18 -21 -122 -594 -165 -909 -32 -235
-45 -284 -92 -336 -74 -81 -269 -152 -513 -186 -174 -23 -641 -24 -785 0 -148
24 -266 61 -401 127 -183 89 -254 163 -298 309 -9 30 -16 56 -16 57 0 1 44
-18 97 -42 185 -83 213 -85 618 -45 110 11 290 27 400 36 244 19 292 28 343
65 46 33 92 118 92 169 -1 101 -90 197 -254 275 -103 50 -231 97 -301 111 -53
10 -494 -83 -859 -181 -92 -25 -170 -43 -172 -41 -2 2 -7 96 -10 209 l-7 206
113 -34 c213 -65 194 -65 629 0 211 32 407 65 435 73 176 52 246 147 189 257
-23 45 -111 133 -175 178 -73 49 -215 118 -244 118 -31 0 -485 -109 -723 -174
-113 -31 -206 -55 -207 -53 -6 5 19 362 25 369 3 3 49 -7 101 -23 52 -17 120
-32 150 -35 63 -7 236 16 395 51 61 14 205 41 320 60 285 48 348 81 362 183
15 112 -51 201 -195 263 -124 53 -252 90 -332 96 -58 4 -84 -1 -235 -47 -93
-29 -230 -70 -304 -92 -91 -27 -154 -52 -195 -78 -33 -21 -61 -38 -62 -37 -2
5 23 287 27 291 2 1 56 11 119 20 234 35 1097 176 1166 190 104 22 176 52 210
87 26 27 29 37 29 97 0 74 -25 128 -90 201 l-33 36 33 115 c43 149 68 203 150
325 l67 100 -5 60 c-12 161 -163 299 -454 416 -146 59 -307 109 -349 109 -30
0 -71 -15 -151 -54 -87 -44 -140 -62 -264 -91 -85 -19 -220 -55 -302 -79 -81
-24 -149 -41 -150 -37 -4 6 34 574 37 578 2 2 52 -16 112 -38 60 -23 144 -49
188 -57 78 -16 80 -16 385 27 495 70 694 116 762 178 92 83 116 202 63 312
-38 76 -124 160 -204 199 -81 38 -270 96 -372 113 -96 16 -132 8 -299 -62 -67
-28 -203 -79 -303 -114 -99 -35 -205 -72 -235 -84 -30 -11 -57 -18 -60 -15 -3
3 2 74 12 159 19 168 16 188 -31 239 -38 40 -310 219 -409 268 -95 47 -185 59
-262 34z"/>
<path d="M1691 8710 c-29 -11 -60 -25 -70 -32 -94 -71 -140 -155 -125 -234 5
-30 15 -38 75 -70 37 -20 74 -46 82 -58 8 -12 27 -90 41 -174 15 -83 33 -170
41 -193 9 -23 14 -43 13 -45 -2 -1 -185 -55 -408 -119 -223 -64 -468 -137
-544 -162 -125 -42 -145 -51 -187 -92 -81 -80 -75 -167 18 -237 83 -63 375
-158 524 -170 100 -9 174 4 449 80 129 35 353 94 498 130 l263 66 20 -22 c10
-13 24 -40 30 -60 11 -33 8 -47 -20 -129 -36 -102 -136 -341 -180 -428 l-29
-56 -213 -58 c-118 -31 -218 -57 -224 -57 -6 0 -10 36 -10 88 -1 101 -19 147
-89 216 -85 86 -315 163 -516 172 -128 7 -162 -7 -198 -76 -55 -105 2 -316
139 -522 21 -32 35 -59 31 -62 -9 -5 -611 -203 -792 -260 -162 -51 -236 -89
-275 -140 -57 -75 -39 -155 48 -215 119 -81 343 -168 490 -191 125 -19 240 2
523 94 452 146 1292 369 1944 516 365 82 425 102 488 163 48 46 62 78 62 145
0 193 -231 341 -534 343 -48 0 -86 4 -84 7 124 243 133 265 136 332 4 64 2 69
-28 103 -17 20 -85 69 -151 109 l-119 73 33 14 c17 7 93 26 167 41 250 52 318
85 355 173 64 155 -93 326 -391 426 -116 39 -205 41 -354 7 -58 -13 -106 -23
-108 -21 -2 1 2 77 8 169 12 180 9 196 -42 242 -57 53 -215 108 -473 165 -152
34 -238 36 -314 9z"/>
<path d="M2530 5903 c-8 -3 -57 -23 -108 -45 -52 -21 -183 -64 -293 -94 -348
-96 -506 -158 -593 -235 -101 -89 -100 -185 5 -286 150 -146 361 -170 640 -73
136 47 188 39 223 -34 13 -27 16 -68 16 -206 l0 -173 -32 27 c-67 54 -151 108
-202 131 -127 56 -204 45 -415 -62 -85 -43 -157 -79 -160 -80 -3 -2 -7 25 -9
59 -10 198 -173 424 -379 524 -31 16 -71 28 -88 28 -72 0 -132 -85 -178 -254
-47 -171 -66 -321 -131 -1025 -43 -461 -79 -771 -107 -927 l-22 -117 23 -62
c44 -117 233 -373 371 -504 88 -83 160 -118 239 -118 133 0 209 99 238 308 6
44 14 206 17 360 3 154 8 326 11 382 l6 102 56 -38 c144 -97 205 -107 311 -51
71 38 195 164 230 233 11 23 35 97 52 165 29 110 38 132 88 203 31 43 58 79
61 79 11 0 -7 -885 -19 -929 -33 -124 -48 -131 -284 -131 -136 0 -197 -4 -235
-15 -49 -15 -52 -18 -52 -49 0 -32 2 -34 43 -40 64 -10 143 -52 165 -89 11
-18 28 -58 38 -91 16 -50 26 -64 69 -96 68 -51 79 -64 186 -225 110 -165 194
-254 276 -293 48 -22 75 -27 153 -30 115 -4 190 19 256 80 73 68 141 226 177
413 9 44 19 96 22 115 4 19 11 503 15 1075 8 1104 8 1114 59 1378 40 205 25
253 -118 389 -206 196 -519 357 -621 321z m-124 -1558 c-3 -9 -782 -385 -797
-385 -2 0 -4 99 -4 220 0 121 2 220 5 220 3 -1 30 -9 60 -20 92 -32 220 -23
402 30 134 39 210 72 272 119 l61 46 3 -109 c1 -60 1 -115 -2 -121z"/>
<path d="M420 2761 c-24 -7 -36 -37 -15 -36 48 3 105 19 105 31 0 15 -45 18
-90 5z"/>
<path d="M550 2758 c0 -19 102 -41 112 -24 11 17 -5 26 -60 33 -41 5 -52 3
-52 -9z"/>
<path d="M314 2713 c-21 -14 -41 -27 -43 -29 -2 -2 -1 -10 2 -18 5 -13 14 -11
51 12 43 26 56 45 38 56 -5 3 -26 -7 -48 -21z"/>
<path d="M694 2725 c-4 -9 -5 -17 -3 -18 71 -48 88 -55 92 -42 6 14 -9 30 -56
58 -25 16 -28 16 -33 2z"/>
<path d="M430 2707 c-19 -8 -47 -19 -63 -25 -40 -17 -110 -91 -138 -147 -21
-43 -24 -64 -24 -150 0 -92 2 -104 30 -154 64 -116 172 -175 310 -169 130 5
221 64 282 180 24 46 28 64 28 143 0 77 -4 98 -27 147 -31 67 -87 124 -154
158 -60 29 -189 38 -244 17z m226 -26 c64 -29 137 -101 166 -165 17 -38 22
-70 23 -126 0 -126 -62 -227 -178 -287 -45 -24 -64 -28 -137 -28 -70 0 -94 4
-135 24 -263 130 -237 506 41 595 64 21 156 15 220 -13z"/>
<path d="M490 2683 c-1 -5 -2 -62 -3 -128 l-2 -120 -107 -3 c-120 -3 -121 -2
-94 62 23 56 106 136 141 136 3 0 5 -34 5 -75 l0 -75 -44 0 c-52 0 -61 9 -40
38 18 25 34 29 34 7 0 -8 5 -15 10 -15 6 0 10 16 10 35 0 40 -2 41 -36 18 -21
-13 -64 -79 -64 -98 0 -3 36 -5 80 -5 l80 0 0 105 c0 64 -4 105 -10 105 -27 0
-103 -46 -136 -82 -39 -43 -58 -82 -73 -147 l-9 -41 144 0 144 0 0 145 c0 122
-2 145 -15 145 -8 0 -15 -3 -15 -7z"/>
<path d="M540 2545 l0 -145 140 0 c156 0 149 -4 125 77 -27 91 -103 168 -187
188 l-28 7 0 -106 0 -106 80 0 c61 0 80 3 80 14 0 19 -41 76 -67 94 -22 14
-23 13 -23 -22 0 -20 5 -36 10 -36 6 0 10 7 10 15 0 20 10 19 26 -2 25 -33 17
-43 -36 -43 l-50 0 0 75 c0 44 4 75 10 75 22 0 89 -53 112 -88 20 -30 48 -94
48 -108 0 -2 -49 -4 -110 -4 l-110 0 0 130 c0 109 -2 130 -15 130 -13 0 -15
-23 -15 -145z"/>
<path d="M237 2348 c12 -63 50 -133 93 -171 39 -36 95 -67 120 -67 6 0 10 39
10 105 l0 105 -81 0 c-79 0 -80 0 -73 -22 13 -45 62 -98 88 -98 3 0 6 16 6 35
0 19 -4 35 -10 35 -5 0 -10 -7 -10 -15 0 -22 -16 -18 -34 7 -20 28 -16 30 39
33 l45 2 0 -74 c0 -40 -2 -73 -5 -73 -35 0 -118 80 -141 136 -27 64 -26 65 94
62 l107 -3 3 -127 c2 -105 5 -128 17 -128 13 0 15 24 15 145 l0 145 -145 0
-144 0 6 -32z"/>
<path d="M540 2235 c0 -122 2 -145 15 -145 13 0 15 21 15 130 l0 130 111 0
c110 0 110 0 104 -22 -16 -56 -54 -115 -94 -145 -65 -50 -72 -46 -69 38 l3 72
43 1 c49 2 58 -5 42 -34 -13 -23 -30 -27 -30 -5 0 8 -4 15 -10 15 -5 0 -10
-16 -10 -35 0 -31 2 -34 18 -26 29 15 60 54 67 84 l7 27 -81 0 -81 0 0 -105
c0 -122 2 -124 87 -75 60 35 97 79 124 150 35 93 39 90 -121 90 l-140 0 0
-145z"/>
<path d="M214 2623 c-37 -51 -45 -70 -30 -76 15 -6 80 79 71 94 -10 15 -20 11
-41 -18z"/>
<path d="M805 2640 c-3 -5 7 -29 22 -52 15 -24 28 -45 29 -46 2 -2 10 0 18 5
14 8 12 15 -16 56 -34 48 -42 54 -53 37z"/>
<path d="M145 2483 c-3 -21 -9 -48 -12 -60 -4 -18 -1 -23 15 -23 15 0 20 9 25
43 2 23 8 50 12 60 5 13 2 17 -13 17 -15 0 -21 -9 -27 -37z"/>
<path d="M874 2504 c4 -10 10 -37 13 -61 7 -52 34 -61 32 -10 -2 51 -13 82
-33 85 -15 3 -17 0 -12 -14z"/>
<path d="M136 2372 c-5 -9 13 -104 23 -114 3 -4 12 -4 19 1 10 6 10 14 2 35
-5 15 -10 41 -10 57 0 27 -21 41 -34 21z"/>
<path d="M884 2323 c-8 -42 -8 -60 0 -65 15 -10 26 14 33 72 5 39 3 50 -8 50
-10 0 -18 -19 -25 -57z"/>
<path d="M182 2232 c-9 -6 -4 -20 18 -55 29 -47 43 -56 55 -37 5 8 -16 44 -55
92 -3 4 -11 4 -18 0z"/>
<path d="M829 2194 c-24 -35 -28 -49 -20 -57 13 -13 30 5 65 64 14 23 14 28 1
33 -10 3 -25 -10 -46 -40z"/>
<path d="M275 2109 c-10 -16 75 -76 89 -62 12 12 6 21 -34 47 -45 30 -46 30
-55 15z"/>
<path d="M722 2093 c-34 -20 -40 -28 -31 -39 9 -12 15 -11 38 2 48 29 63 43
56 53 -9 15 -14 14 -63 -16z"/>
<path d="M2216 2084 c-3 -9 -6 -46 -6 -84 l0 -68 -104 -50 c-120 -59 -198
-125 -241 -204 -78 -141 2 -309 156 -325 48 -5 61 -1 123 31 38 20 70 36 71
36 1 0 0 -11 -3 -25 -3 -17 1 -27 12 -31 9 -4 19 -4 22 -1 7 7 6 716 -1 727
-9 15 -22 12 -29 -6z m-8 -406 l-3 -202 -43 -33 c-82 -62 -166 -66 -230 -9
-109 95 -66 257 97 370 40 28 146 75 169 76 10 0 12 -44 10 -202z"/>
<path d="M393 2047 c-10 -16 16 -30 66 -35 40 -3 51 -1 51 10 0 16 -108 40
-117 25z"/>
<path d="M603 2046 c-35 -7 -53 -15 -53 -24 0 -11 11 -13 51 -10 53 5 73 16
61 33 -5 7 -25 7 -59 1z"/>
<path d="M3045 1909 c-27 -11 -65 -21 -84 -22 -30 -2 -35 -7 -52 -51 -10 -27
-16 -53 -13 -57 3 -5 27 9 54 30 56 44 144 81 193 81 38 0 77 -10 77 -19 0 -3
-33 -18 -73 -33 -43 -17 -106 -53 -158 -92 -69 -51 -91 -74 -113 -117 -64
-129 0 -266 129 -277 65 -5 116 9 189 53 32 19 60 35 62 35 1 0 4 -17 6 -37 2
-29 7 -38 22 -38 18 0 19 11 17 239 -2 262 -6 283 -61 311 -41 21 -135 18
-195 -6z m215 -240 l0 -161 -28 -26 c-50 -46 -150 -92 -201 -92 -110 0 -173
105 -127 213 31 76 249 227 327 227 l29 0 0 -161z"/>
<path d="M3791 1905 c-29 -25 -31 -26 -62 -9 -39 20 -138 23 -191 5 -43 -14
-88 -63 -88 -95 0 -35 46 -69 182 -135 182 -89 257 -162 274 -270 15 -95 -52
-196 -148 -221 -96 -27 -224 15 -311 102 -26 26 -50 48 -52 48 -7 0 -6 -66 1
-84 3 -9 10 -13 15 -10 5 3 35 -11 67 -30 71 -44 159 -76 210 -76 103 0 206
63 238 145 24 64 16 169 -19 227 -36 61 -113 131 -188 169 l-64 32 50 22 c64
28 83 50 87 100 3 35 6 40 38 50 48 14 60 23 53 40 -8 23 -58 18 -92 -10z
m-79 -46 c32 -13 43 -40 29 -67 -12 -23 -80 -52 -121 -52 -41 0 -109 29 -121
51 -34 64 107 109 213 68z"/>
<path d="M2416 1913 c-3 -4 -6 -128 -6 -275 1 -229 3 -270 16 -275 8 -3 17 -3
20 0 3 2 6 90 7 193 2 177 4 192 25 233 60 112 129 123 170 29 6 -16 19 -28
28 -28 13 0 14 9 8 58 -3 31 -8 58 -9 60 -2 2 -25 5 -51 7 -57 5 -104 -8 -129
-35 -22 -25 -50 -27 -41 -4 10 26 -20 55 -38 37z"/>
<path d="M4242 1907 c-50 -16 -118 -81 -148 -144 -39 -79 -40 -186 -2 -258 64
-122 174 -171 300 -133 55 16 126 83 154 143 33 70 33 180 0 250 -55 119 -186
180 -304 142z m139 -38 c45 -15 107 -74 130 -124 29 -61 26 -158 -7 -223 -39
-78 -117 -132 -190 -132 -40 0 -96 22 -128 50 -129 114 -84 383 71 430 41 12
85 12 124 -1z"/>
<path d="M4889 1896 c-20 -7 -52 -22 -71 -34 -38 -24 -53 -28 -43 -12 10 17
-6 51 -22 48 -13 -3 -15 -39 -15 -268 0 -245 1 -265 17 -265 16 0 18 17 19
190 1 213 6 231 72 281 25 20 51 29 89 32 70 6 97 -2 139 -39 79 -69 87 -193
22 -333 -36 -79 -45 -129 -26 -141 17 -11 37 13 43 48 2 18 18 70 36 117 47
131 39 233 -26 318 -48 64 -149 89 -234 58z"/>
<path d="M6903 1485 c0 -38 2 -53 4 -32 2 20 2 52 0 70 -2 17 -4 1 -4 -38z"/>
<path d="M6366 1518 c-9 -12 -16 -32 -15 -43 0 -15 3 -12 11 10 14 39 12 37
55 45 l38 8 -37 1 c-28 1 -41 -5 -52 -21z"/>
<path d="M6500 1468 c-3 -42 -1 -73 3 -69 4 4 7 39 5 77 l-3 69 -5 -77z"/>
<path d="M6751 1482 c-17 -31 -13 -40 5 -14 9 13 14 26 11 29 -3 2 -10 -4 -16
-15z"/>
<path d="M7122 1488 c-7 -7 -12 -19 -12 -27 0 -11 5 -8 16 7 18 25 15 39 -4
20z"/>
<path d="M6550 1443 c-3 -29 -1 -48 3 -44 5 5 7 28 5 52 l-3 44 -5 -52z"/>
<path d="M6597 1483 c-4 -3 -7 -18 -6 -32 l1 -26 7 25 c5 17 16 27 36 31 l30
7 -31 1 c-17 0 -34 -2 -37 -6z"/>
<path d="M7030 1443 c-3 -29 -1 -48 3 -44 5 5 7 28 5 52 l-3 44 -5 -52z"/>
<path d="M7186 1475 c-3 -8 -1 -15 4 -15 6 0 10 4 10 9 0 5 8 12 18 14 13 4
12 5 -4 6 -12 0 -24 -6 -28 -14z"/>
<path d="M6830 1460 l-25 -8 28 -1 c15 -1 27 4 27 9 0 6 -1 10 -2 9 -2 -1 -14
-5 -28 -9z"/>
<path d="M7260 1457 c0 -13 -9 -17 -41 -17 -22 0 -38 -4 -35 -8 8 -13 77 -1
83 15 3 7 3 17 -1 20 -3 4 -6 -1 -6 -10z"/>
<path d="M6710 1429 c0 -5 5 -7 10 -4 6 3 10 8 10 11 0 2 -4 4 -10 4 -5 0 -10
-5 -10 -11z"/>
<path d="M7080 1429 c0 -5 5 -7 10 -4 6 3 10 8 10 11 0 2 -4 4 -10 4 -5 0 -10
-5 -10 -11z"/>
<path d="M6398 1393 c12 -2 30 -2 40 0 9 3 -1 5 -23 4 -22 0 -30 -2 -17 -4z"/>
<path d="M6623 1393 c9 -2 23 -2 30 0 6 3 -1 5 -18 5 -16 0 -22 -2 -12 -5z"/>
<path d="M6913 1393 c15 -2 39 -2 55 0 15 2 2 4 -28 4 -30 0 -43 -2 -27 -4z"/>
<path d="M7208 1393 c12 -2 30 -2 40 0 9 3 -1 5 -23 4 -22 0 -30 -2 -17 -4z"/>
</g>
</svg>
